<?xml version="1.0" standalone="no"?>
<svg xmlns="http://www.w3.org/2000/svg" version="1.1" xmlns:xlink="http://www.w3.org/1999/xlink" width="512" height="512" x="0" y="0" viewBox="0 0 24 19" style="enable-background:new 0 0 512 512" xml:space="preserve" class=""><g><path fill="#ffffff" d="M3 12h2V9H3zm4 0h2V9H7zm6-3h-2v3h2zM7 8h2V5H7zM3 8h2V5H3zm20.5-.9c-2-1-4.1-1.6-6.5-1.9l1.3 2.2c1.3.3 2.5.7 3.7 1.2v6.7c-.4.1-.7.2-1.1.3l-9-15-.3-.1C10.1.2 8.5 0 7 0 3.9 0 1.8.6 0 1.3v15.4C3.8 18.1 7.5 19 12 19s8.2-.9 12-2.3V7.4zM17 16.6V14h-2v2.8c-.7.1-1.3.1-2 .1v-4h-2v4c-.7 0-1.3-.1-2-.1V13H7v3.6c-.7-.1-1.3-.2-2-.4V13H3v2.6c-.3-.1-.7-.2-1-.3V2.7C3.3 2.3 5.2 2 7 2c1.2 0 2.5.1 3.6.4l8.2 13.8c-.5.1-1.2.3-1.8.4zM21 9h-2l2 3z" opacity="1" data-original="#728497"/></g></svg>